<svg enable-background="new 0 0 64 64" viewBox="0 0 64 64" xmlns="http://www.w3.org/2000/svg"><circle cx="32" cy="32" fill="#4f5d73" r="32"/><path d="m52 45c0 2.2-1.8 4-4 4h-32c-2.2 0-4-1.8-4-4v-20c0-2.2 1.8-4 4-4h32c2.2 0 4 1.8 4 4z" fill="#231f20" opacity=".2"/><path d="m38 16v20h-12v-20zm0-4h-12c-2.2 0-4 1.8-4 4v20c0 2.2 1.8 4 4 4h12c2.2 0 4-1.8 4-4v-20c0-2.2-1.8-4-4-4z" fill="#e0995e"/><path d="m12 28v15c0 2.2 1.8 4 4 4h32c2.2 0 4-1.8 4-4v-15z" fill="#e0995e"/><path d="m52 25c0-2.2-1.8-4-4-4h-32c-2.2 0-4 1.8-4 4v5h40z" fill="#231f20" opacity=".2"/><path d="m40 32c0 2.2-1.8 4-4 4h-8c-2.2 0-4-1.8-4-4v-3c0-2.2 1.8-4 4-4h8c2.2 0 4 1.8 4 4z" fill="#231f20" opacity=".2"/><path d="m36 27v3h-8v-3zm0-4h-8c-2.2 0-4 1.8-4 4v3c0 2.2 1.8 4 4 4h8c2.2 0 4-1.8 4-4v-3c0-2.2-1.8-4-4-4z" fill="#f5cf87"/><path d="m52 23c0-2.2-1.8-4-4-4h-32c-2.2 0-4 1.8-4 4v5h40z" fill="#e0995e"/></svg>